<?xml version="1.0" encoding="utf-8"?>
<!-- Generator: Adobe Illustrator 25.0.0, SVG Export Plug-In . SVG Version: 6.00 Build 0)  -->
<svg version="1.1" xmlns="http://www.w3.org/2000/svg" xmlns:xlink="http://www.w3.org/1999/xlink" x="0px" y="0px"
	 viewBox="0 0 720 720" style="enable-background:new 0 0 720 720;" xml:space="preserve">
<style type="text/css">
	.st0{fill:#AAD7AC;}
	.st1{fill:#F48783;}
	.st2{fill:#FFFFFF;}
	.st3{display:none;}
	.st4{display:inline;fill:none;stroke:#000000;stroke-width:5;stroke-linecap:round;stroke-linejoin:round;stroke-miterlimit:10;}
	.st5{display:inline;fill:none;stroke:#AAD7AC;stroke-width:5;stroke-linecap:round;stroke-linejoin:round;stroke-miterlimit:10;}
	.st6{display:inline;fill:none;stroke:#FFFFFF;stroke-width:5;stroke-linecap:round;stroke-linejoin:round;stroke-miterlimit:10;}
</style>
<g id="Layer_2">
</g>
<g id="Layer_1">
	<path class="st0" d="M121.84,501.38c-2.49-1.36-3.89-3.3-3.74-6.26c0.15-2.93-0.07-271.25,0.09-272.53
		c0.13-1.1-0.32-2.25,1.81-3.88c3.36-1.93,231.84-134.37,237.08-137.31c1.01-0.57,2.07-1.05,3.11-1.56c1.1-0.55,2.14-0.62,3.31,0
		c3.25,1.73,229.97,131.82,232.17,132.76c0.42,0.18,10.37,5.66,11.58,6.31c1.05,0.57,1.74,1.43,1.81,2.58
		c0.23,3.61-0.23,7.61-0.1,11.22c0.14,3.75,0.17,261.5-0.1,263.66c-0.21,1.7-1.45,2.88-2.92,3.73
		c-3.3,1.91-237.05,137.32-240.03,139.11c-1.35,0.82-2.51,0.87-4.02,0.21c-3.64-1.59-49.92-27.03-52.42-28.29
		c-1.65-0.84-1.65-0.75-3.01,0.46c-2.76,2.45-5.48,5-8.72,6.79c-3.17,1.76-6.47,3.24-10.32,2.7c-1.43-0.2-2.43-0.81-3.15-1.99
		c-1.29-2.1-1.12-4.55,0.42-6.49c1.4-1.76,2.71-3.55,4.55-4.95c1.65-1.26,3.32-2.39,5.25-3.15c0.15-0.06,0.26-0.25,0.35-0.41
		c0.01-0.03-0.16-0.2-0.27-0.25c-3.42-1.56-6.84-3.11-10.25-4.68c-2.6-1.19-5.19-2.41-7.78-3.62c-1.11-0.52-2.21-1.09-3.34-1.58
		c-3.13-1.36-6.28-2.68-9.42-4.02c-0.19-0.08-0.39-0.14-0.57-0.23c-0.68-0.32-1.1-0.23-1.42,0.56c-1.11,2.65-3.02,4.7-5.18,6.53
		c-2.55,2.16-12,11.89-20.22,8.59c-2.71-1.09-2.94-4.72-2.2-6.87c1.18-6.64,11-12.27,13.23-13.72c0.26-0.17,0.43-0.47,0.64-0.71
		c-0.22-0.15-0.43-0.33-0.67-0.43c-1.62-0.7-18.88-8.04-27.22-9.36c-0.28-0.07-0.83,0.19-0.97,0.44c-1.5,2.78-3.82,4.9-6.16,6.83
		c-3.19,2.63-6.98,4.11-11.23,2.36c-2.01-0.83-3.27-2.17-3.63-4.54c-0.39-2.5,0.71-4.01,2.38-5.48c1.91-1.69,4.2-2.5,6.59-3.16
		c0.18-0.05,0.34-0.19,0.51-0.29c-0.18-0.17-0.33-0.44-0.54-0.51c-2.75-0.81-5.52-1.57-8.27-2.39c-1.11-0.33-2.18-0.78-3.27-1.17
		c-0.45-0.16-0.9-0.3-1.36-0.43c-2.5-0.67-5.02-1.3-7.5-2.03c-1.41-0.41-1.46-0.45-2.08,0.96c-1.31,2.96-3.08,5.62-5.21,8.06
		c-1.39,1.59-6.06,8.88-16.83,11.14c-1.86,0.46-3.67,0.44-5.49,0c-2.52-0.62-9.22-5.27,1.6-15.57c5.33-4.4,10.87-6.7,13.51-7.98
		c0.21-0.1,0.38-0.29,0.57-0.43c-0.23-0.12-0.44-0.29-0.68-0.36c-1.7-0.49-3.42-0.93-5.11-1.45c-1.69-0.53-24.58-7.29-26.85-8.06
		c-1.42-0.48-2.46-0.07-3.56,0.77c-2.27,1.75-4.59,3.43-6.92,5.11c-1.44,1.03-2.83,2.18-4.39,2.97c-2.29,1.15-4.57,2.39-7.21,2.74
		c-2.32,0.31-4.59,0.61-6.92,0.02c-2.41-0.6-8.07-5.01-0.19-12.21c2.53-2.05,5.35-3.54,8.43-4.59c0.24-0.08,0.44-0.27,0.66-0.41
		c-0.23-0.13-0.45-0.31-0.7-0.39c-3.94-1.16-7.89-2.29-11.83-3.45c-1.57-0.46-3.13-0.99-4.68-1.51c-0.13-0.04-0.32-0.16-0.25-0.4
		c0.04-0.11,0.23-0.15,0.35-0.14c1.69,0.24,3.4,0.42,5.07,0.77c5.28,1.12,10.55,2.32,15.83,3.48c0.27,0.06,0.58,0.17,0.8,0.08
		c0.22-0.09,0.53-0.46,0.49-0.6c-0.2-0.65-0.45-1.3-0.79-1.89c-1.57-2.73-2.14-5.73-2.43-8.8c-0.12-1.29-0.01-2.61-0.15-3.89
		c-0.18-1.68,0.49-3.08,1.29-4.44c0.72-1.22,1.69-1.85,3.23-2.13c2.89-0.52,4.85,0.62,6.7,2.57c2.71,2.86,3.93,6.32,4.41,10.14
		c0.41,3.26,0.75,8.04,0.54,11.34c-0.04,0.59,0.15,1.43-0.6,1.54c-0.28,0.04-0.69-0.59-0.85-1.1c-0.94-2.93-1.77-7.62-2.75-10.53
		c-0.74-2.2-1.55-4.4-2.61-6.45c-0.53-1.03-1.6-1.86-2.6-2.54c-1.03-0.7-1.82-0.31-2.1,0.93c-0.19,0.85-0.27,1.77-0.18,2.63
		c0.23,2.32,0.89,4.53,1.58,6.77c0.83,2.67,2.18,4.99,3.76,7.22c0.29,0.41,0.73,0.85,1.18,0.97c5.76,1.5,11.54,2.93,17.31,4.39
		c1.72,0.44,3.43,0.91,5.15,1.37c5.23,1.38,10.46,2.74,15.68,4.13c2.17,0.58,4.34,1.2,6.5,1.8c0.53,0.15,1.05,0.33,1.59,0.41
		c0.54,0.08,0.82-0.3,0.58-0.75c-1.08-2.04-1.03-4.21-0.81-6.39c0.07-0.73,0.35-1.45,0.58-2.17c0.93-2.88,4.06-3.29,6.61-1.8
		c2.15,1.26,3.57,3.16,4.54,5.41c1.08,2.5,2.33,4.97,3.05,7.58c0.5,1.81,1.08,2.84,3.04,3.32c12.82,4.4,35.38,9.27,64.49,21.43
		c2.28,0.92,10.03,4.19,10.58,4.46l0.08,0.09l-0.1-0.06C271.29,587.29,123.64,502.36,121.84,501.38z M604.21,224.81
		c0-0.9-0.47-1.72-1.25-2.17C584.39,211.96,366.98,86.94,364.32,85.06c-1.6-1.13-3.04-1.25-4.71-0.12
		c-2.37,1.61-231.53,135.13-234.89,137.08c-1.59,0.92-2.02,1.62-1.8,3.45c0.09,0.74,0.2,1.49,0.2,2.24
		c0.02,3.96,0.22,263.66,0.4,266.92c0.11,2.04,0.22,1.86,1.87,2.88c1.64,0.9,168.4,96.97,170.9,98.37c0.65,0.37,1.02,0.11,1-0.67
		c-0.03-0.89,0.4-8.2,1.26-10.92c0.77-2.43,1.86-4.55,3.63-6.3c2.09-2.07,6.28-2.18,8.09-0.24c2.28,2.45,3.22,5.43,2.56,8.71
		c-1.04,5.1-2.64,10.04-4.77,14.8c-0.53,1.18-0.45,1.39,0.66,1.88c0.68,0.3,50.44,29.21,51.33,29.84c2.51,1.79,3.93,1.82,6.49,0.05
		c0.23-0.16,0.43-0.34,0.67-0.48c2.29-1.35,229.41-133.38,229.88-133.65c1.77-1.01,3.56-1.99,5.35-2.97
		c0.99-0.54,1.5-1.27,1.48-2.46C603.87,490.46,604.1,245.96,604.21,224.81z M171.1,574.42c3.49-2.83,6.65-6.03,9.65-9.38
		c0.45-0.51,0.9-1.03,1.28-1.59c0.1-0.14,0-0.62-0.12-0.67c-0.93-0.4-1.88-0.93-2.91-0.29c-1.69,1.05-3.57,1.64-5.37,2.44
		c-3.91,1.74-7.78,3.65-11.02,6.56c-1.83,1.64-3.12,2.37-4.67,5.63C156.92,579.28,159.91,583.02,171.1,574.42z M240.05,601.17
		c1.42-0.03,3.93-0.84,5.27-1.52c3.68-1.86,6.98-4.3,10.42-6.53c1.44-0.93,2.85-1.9,4.23-2.9c1.25-0.91,1.21-1.16-0.13-1.82
		c-0.25-0.12-0.47-0.28-0.72-0.4c-2.64-1.3-5.22-1.42-7.71,0.37c-0.5,0.36-1.04,0.66-1.59,0.93c-4.08,2-7.26,5.02-9.85,8.71
		c-0.39,0.55-0.71,1.18-0.94,1.81C238.64,600.85,238.93,601.2,240.05,601.17z M125.01,554.08c3.07-1.48,6.05-3.17,9.06-4.78
		c0.16-0.09,0.28-0.26,0.42-0.39c-0.14-0.12-0.26-0.3-0.43-0.35c-1.77-0.54-3.53-1.09-5.32-1.55c-0.5-0.13-1.09-0.03-1.61,0.08
		c-0.93,0.19-1.84,0.52-2.78,0.71c-3.53,0.75-10.28,2.55-12.37,7.03C110.31,558.42,116.11,558.5,125.01,554.08z M302.2,595.48
		c0,0.62-0.37,3.93,1.77,5.01c0.25,0.09,0.46,0.29,0.71,0.41c0.9,0.41,1.18,0.27,1.38-0.75c0.41-2.08,4.84-14.73,1.17-18.4
		c-0.44-0.44-0.78-0.72-1.32-0.15C304.75,582.8,302.07,587.25,302.2,595.48z M301.19,607.42c-0.43,0.08-0.7,0.11-0.97,0.17
		c-3.22,0.81-6.16,2.24-8.74,4.32c-1.04,0.84-1.92,1.93-2.71,3.03c-0.6,0.83-0.17,1.41,0.88,1.4c0.27,0,0.56-0.02,0.8-0.12
		c2.14-0.86,4.36-1.58,6.39-2.67c2.21-1.18,4.23-2.69,6.33-4.07c0.33-0.22,0.63-0.47,0.95-0.71c-0.37-0.27-0.72-0.61-1.13-0.79
		C302.38,607.72,301.71,607.57,301.19,607.42z M216.35,573.84c0.45-0.38,0.2-0.76-0.27-0.89c-0.29-0.08-0.65-0.02-0.96,0.06
		c-0.71,0.18-1.41,0.47-2.13,0.59c-2.78,0.47-11.76,2.31-9.79,5.14C206.04,583.82,214.28,575.58,216.35,573.84z M183.75,551.31
		c-0.1,2.35,1.08,4.3,1.54,6.42c0.24,1.09,0.87,1.64,1.91,1.87c1.26,0.27,2.52,0.57,3.78,0.85c0.25,0.05,0.5,0.07,0.76,0.1
		c-0.05-0.25-0.03-0.55-0.15-0.75c-1.09-1.82-2.22-3.62-3.35-5.4C184.09,547.82,183.74,551.27,183.75,551.31z"/>
</g>
<g id="Layer_3" class="st3">
	<polygon class="st5" points="605.22,500.17 605.22,221.11 363.55,81.59 121.88,221.11 121.88,500.17 363.55,639.7 	"/>
</g>
</svg>
